<svg width="1280" height="360" viewBox="0 0 1280 360" fill="none" xmlns="http://www.w3.org/2000/svg">
  <defs>
    <linearGradient id="bg" x1="0" y1="0" x2="1280" y2="360" gradientUnits="userSpaceOnUse">
      <stop stop-color="#0B1220"/>
      <stop offset="0.55" stop-color="#12284A"/>
      <stop offset="1" stop-color="#0E7490"/>
    </linearGradient>
    <linearGradient id="glow" x1="0" y1="0" x2="1" y2="1">
      <stop stop-color="#67E8F9" stop-opacity="0.75"/>
      <stop offset="1" stop-color="#60A5FA" stop-opacity="0.08"/>
    </linearGradient>
    <filter id="blur"><feGaussianBlur stdDeviation="32"/></filter>
  </defs>
  <rect width="1280" height="360" rx="24" fill="url(#bg)"/>
  <circle cx="1110" cy="70" r="150" fill="#38BDF8" fill-opacity="0.18" filter="url(#blur)"/>
  <circle cx="930" cy="330" r="180" fill="#22D3EE" fill-opacity="0.12" filter="url(#blur)"/>
  <path d="M0 300C220 240 350 350 560 285C760 224 870 275 1280 180V360H0V300Z" fill="#020617" fill-opacity="0.3"/>
  <rect x="850" y="65" width="170" height="270" rx="24" fill="#0F172A" stroke="url(#glow)" stroke-width="3" transform="rotate(13 850 65)"/>
  <rect x="875" y="96" width="120" height="185" rx="12" fill="#172554" transform="rotate(13 875 96)"/>
  <circle cx="936" cy="114" r="5" fill="#67E8F9"/>
  <path d="M900 190L925 215L977 151" stroke="#67E8F9" stroke-width="9" stroke-linecap="round" stroke-linejoin="round"/>
  <text x="80" y="145" fill="white" font-family="Arial, Helvetica, sans-serif" font-size="54" font-weight="700">Istiak Ahmed</text>
  <text x="84" y="202" fill="#A5F3FC" font-family="Arial, Helvetica, sans-serif" font-size="25" font-weight="600">Flutter Developer · Mobile App Engineer</text>
  <text x="84" y="250" fill="#CBD5E1" font-family="Arial, Helvetica, sans-serif" font-size="20">Building fintech, banking, ERP and education solutions</text>
  <rect x="84" y="282" width="270" height="3" rx="1.5" fill="#67E8F9"/>
</svg>
